<svg width="22" height="24" viewBox="0 0 22 24" fill="none" xmlns="http://www.w3.org/2000/svg">
<path d="M16.8444 22.8681C18.3078 22.8681 19.4942 21.5739 19.4942 19.9774C19.4942 18.3809 18.3078 17.0867 16.8444 17.0867C15.3809 17.0867 14.1946 18.3809 14.1946 19.9774C14.1946 21.5739 15.3809 22.8681 16.8444 22.8681Z" fill="white"/>
<path d="M9.50897 10.7681C7.2354 10.7681 5.37524 8.73887 5.37524 6.2586V4.64136C5.37524 2.1611 7.2354 0.131836 9.50897 0.131836C11.7825 0.131836 13.6427 2.1611 13.6427 4.64136V6.2586C13.6427 8.73887 11.7825 10.7681 9.50897 10.7681Z" fill="white"/>
<path d="M12.2199 20.0485C12.2199 17.359 14.1443 15.1657 16.5719 15.0026C15.6108 13.1 13.8772 11.7199 11.8367 11.3877C11.1373 11.7826 10.347 12.0102 9.50901 12.0102C8.67106 12.0102 7.88068 11.7829 7.18134 11.3877C4.05605 11.8967 1.63879 14.8551 1.63879 18.4004V23.0651C1.63879 23.4919 1.959 23.8412 2.35021 23.8412H13.7944C12.8309 22.9136 12.2199 21.5603 12.2199 20.0485Z" fill="white"/>
<path d="M16.8598 16.2557C14.9398 16.2557 13.3832 17.9539 13.3832 20.0484C13.3832 22.143 14.9398 23.8412 16.8598 23.8412C18.7799 23.8412 20.3365 22.143 20.3365 20.0484C20.3365 17.9539 18.7799 16.2557 16.8598 16.2557ZM18.7999 20.5153C18.7999 20.6654 18.6883 20.7871 18.5507 20.7871H17.5819V21.844C17.5819 21.9942 17.4703 22.1159 17.3327 22.1159H16.4256C16.288 22.1159 16.1764 21.9942 16.1764 21.844V20.7871H15.2076C15.0699 20.7871 14.9584 20.6654 14.9584 20.5153V19.5258C14.9584 19.3756 15.0699 19.2539 15.2076 19.2539H16.1764V18.197C16.1764 18.0468 16.288 17.9251 16.4256 17.9251H17.3327C17.4703 17.9251 17.5819 18.0468 17.5819 18.197V19.2539H18.5507C18.6883 19.2539 18.7999 19.3756 18.7999 19.5258V20.5153Z" fill="white"/>
</svg>
